<?xml version="1.0" standalone="no"?>
<!DOCTYPE svg PUBLIC "-//W3C//DTD SVG 20010904//EN"
 "http://www.w3.org/TR/2001/REC-SVG-20010904/DTD/svg10.dtd">
<svg version="1.0" xmlns="http://www.w3.org/2000/svg"
 width="1650.000000pt" height="788.000000pt" viewBox="0 0 1650.000000 788.000000"
 preserveAspectRatio="xMidYMid meet">

<g transform="translate(0.000000,788.000000) scale(0.100000,-0.100000)"
fill="#0c4c93" stroke="none">
<path d="M2990 5328 c-518 -54 -811 -362 -886 -932 -20 -154 -15 -485 11 -626
69 -384 284 -659 596 -765 181 -62 357 -75 1022 -75 l497 0 0 705 0 705 -600
0 -600 0 0 -205 0 -205 365 0 365 0 0 -291 0 -291 -332 5 c-363 5 -420 12
-532 65 -99 47 -173 131 -242 275 -59 125 -69 191 -68 457 0 210 2 243 22 315
53 192 152 325 296 395 48 23 108 44 146 50 38 6 298 10 623 10 l557 0 0 210
0 210 -577 -1 c-318 -1 -616 -6 -663 -11z"/>
<path d="M4550 4135 l0 -1205 235 0 235 0 0 1205 0 1205 -235 0 -235 0 0
-1205z"/>
<path d="M5242 4413 l3 -928 28 -90 c60 -190 154 -314 293 -387 134 -71 137
-71 737 -75 l537 -4 0 210 0 210 -452 3 c-401 3 -458 6 -499 21 -99 38 -159
118 -179 238 -6 40 -10 372 -10 897 l0 832 -230 0 -231 0 3 -927z"/>
<path d="M7020 4135 l0 -1207 653 5 c773 6 816 10 1004 102 276 136 439 381
508 765 22 126 31 446 16 575 -38 319 -120 503 -311 695 -116 116 -180 159
-302 201 -173 59 -211 62 -920 66 l-648 4 0 -1206z m1260 810 c155 -37 254
-111 322 -241 88 -170 123 -364 115 -649 -7 -267 -34 -377 -127 -519 -81 -124
-189 -189 -360 -216 -36 -5 -219 -10 -407 -10 l-343 0 0 831 0 831 363 -4
c303 -4 374 -7 437 -23z"/>
<path d="M10181 5323 c-49 -18 -129 -90 -156 -143 -20 -40 -945 -2207 -952
-2232 -5 -17 11 -18 239 -18 l243 0 84 203 c122 296 164 381 196 395 19 9 163
12 543 12 l517 0 104 -263 c113 -284 133 -315 206 -336 23 -6 123 -11 229 -11
l188 0 -5 23 c-4 12 -224 554 -489 1204 l-483 1183 -210 -1 c-164 0 -220 -4
-254 -16z m365 -923 c97 -245 179 -455 182 -467 l4 -23 -387 0 c-213 0 -385 4
-383 9 80 205 394 939 399 934 4 -5 87 -208 185 -453z"/>
<path d="M11780 4135 l0 -1205 225 0 225 0 2 840 3 839 410 -586 c226 -323
468 -671 538 -773 71 -102 150 -207 175 -233 69 -70 106 -79 350 -85 l202 -4
0 1206 0 1206 -225 0 -225 0 -2 -841 -3 -841 -499 722 c-478 690 -597 850
-685 914 -49 37 -112 46 -311 46 l-180 0 0 -1205z"/>
<path d="M14215 5321 c-81 -38 -125 -111 -125 -208 1 -128 91 -223 213 -223
137 0 236 107 224 239 -5 60 -32 124 -64 153 -60 55 -175 73 -248 39z m169
-41 c87 -42 122 -160 76 -254 -30 -64 -70 -89 -145 -94 -50 -3 -66 0 -95 20
-70 48 -101 130 -79 211 30 116 139 168 243 117z"/>
<path d="M14225 5228 c-3 -8 -4 -66 -3 -128 3 -100 5 -115 21 -118 14 -3 17 5
17 52 0 51 2 56 23 56 16 0 30 -14 52 -53 20 -34 38 -53 53 -55 29 -4 28 4 -8
58 -34 51 -36 60 -16 60 19 0 46 39 46 66 0 45 -30 64 -107 71 -58 5 -74 3
-78 -9z m136 -44 c22 -26 -1 -49 -55 -52 l-46 -3 0 35 c0 36 0 36 44 36 28 0
48 -6 57 -16z"/>
</g>
</svg>
